<svg xmlns="http://www.w3.org/2000/svg" viewBox="0 0 128 128">
  <defs>
    <linearGradient id="bg" x1="12" y1="8" x2="116" y2="120" gradientUnits="userSpaceOnUse">
      <stop stop-color="#6ee7ff"/><stop offset=".45" stop-color="#3578e5"/><stop offset="1" stop-color="#173d91"/>
    </linearGradient>
    <linearGradient id="card" x1="30" y1="23" x2="94" y2="108" gradientUnits="userSpaceOnUse">
      <stop stop-color="#ffffff" stop-opacity=".98"/><stop offset="1" stop-color="#dbeafe" stop-opacity=".92"/>
    </linearGradient>
    <filter id="shadow" x="-30%" y="-30%" width="160%" height="170%"><feDropShadow dx="0" dy="5" stdDeviation="5" flood-opacity=".28"/></filter>
  </defs>
  <rect x="5" y="5" width="118" height="118" rx="29" fill="url(#bg)"/>
  <circle cx="25" cy="22" r="17" fill="#fff" opacity=".12"/><circle cx="105" cy="108" r="24" fill="#0b1f64" opacity=".18"/>
  <g filter="url(#shadow)">
    <rect x="27" y="22" width="72" height="78" rx="12" fill="url(#card)"/>
    <rect x="36" y="34" width="42" height="7" rx="3.5" fill="#3b82f6"/>
    <rect x="36" y="49" width="55" height="7" rx="3.5" fill="#94a3b8"/>
    <rect x="36" y="64" width="47" height="7" rx="3.5" fill="#94a3b8"/>
    <rect x="36" y="79" width="31" height="7" rx="3.5" fill="#cbd5e1"/>
  </g>
  <circle cx="91" cy="88" r="19" fill="#fbbf24" stroke="#fff" stroke-width="5" filter="url(#shadow)"/>
  <path d="M91 76v24M79 88h24" stroke="#173d91" stroke-width="5" stroke-linecap="round"/>
  <path d="M20 91l6 2-6 2-2 6-2-6-6-2 6-2 2-6z" fill="#fff" opacity=".9"/>
</svg>
